<svg width="201" height="108" viewBox="0 0 201 108" fill="none" xmlns="http://www.w3.org/2000/svg">
<g filter="url(#filter0_d_5_41)">
<path d="M63.918 73.158C63.918 74.754 63.51 75.99 62.694 76.866C61.89 77.742 60.798 78.18 59.418 78.18C58.566 78.18 57.804 77.988 57.132 77.604C56.472 77.208 55.95 76.638 55.566 75.894C55.182 75.138 54.99 74.226 54.99 73.158C54.99 71.562 55.392 70.332 56.196 69.468C57 68.604 58.092 68.172 59.472 68.172C60.348 68.172 61.116 68.37 61.776 68.766C62.448 69.15 62.97 69.714 63.342 70.458C63.726 71.19 63.918 72.09 63.918 73.158ZM56.628 73.158C56.628 74.298 56.85 75.204 57.294 75.876C57.75 76.536 58.47 76.866 59.454 76.866C60.426 76.866 61.14 76.536 61.596 75.876C62.052 75.204 62.28 74.298 62.28 73.158C62.28 72.018 62.052 71.124 61.596 70.476C61.14 69.828 60.42 69.504 59.436 69.504C58.452 69.504 57.738 69.828 57.294 70.476C56.85 71.124 56.628 72.018 56.628 73.158ZM70.2984 78.18C69.4464 78.18 68.6844 78.006 68.0124 77.658C67.3524 77.31 66.8304 76.77 66.4464 76.038C66.0744 75.306 65.8884 74.37 65.8884 73.23C65.8884 72.042 66.0864 71.076 66.4824 70.332C66.8784 69.588 67.4124 69.042 68.0844 68.694C68.7684 68.346 69.5424 68.172 70.4064 68.172C70.8984 68.172 71.3724 68.226 71.8284 68.334C72.2844 68.43 72.6564 68.55 72.9444 68.694L72.4584 70.008C72.1704 69.9 71.8344 69.798 71.4504 69.702C71.0664 69.606 70.7064 69.558 70.3704 69.558C68.4744 69.558 67.5264 70.776 67.5264 73.212C67.5264 74.376 67.7544 75.27 68.2104 75.894C68.6784 76.506 69.3684 76.812 70.2804 76.812C70.8084 76.812 71.2704 76.758 71.6664 76.65C72.0744 76.542 72.4464 76.41 72.7824 76.254V77.658C72.4584 77.826 72.0984 77.952 71.7024 78.036C71.3184 78.132 70.8504 78.18 70.2984 78.18ZM81.7369 69.684H78.5869V78H77.0209V69.684H73.9069V68.352H81.7369V69.684ZM87.2914 68.19C88.4674 68.19 89.3374 68.448 89.9014 68.964C90.4654 69.48 90.7474 70.302 90.7474 71.43V78H89.5954L89.2894 76.632H89.2174C88.7974 77.16 88.3534 77.55 87.8854 77.802C87.4294 78.054 86.7934 78.18 85.9774 78.18C85.1014 78.18 84.3754 77.952 83.7994 77.496C83.2234 77.028 82.9354 76.302 82.9354 75.318C82.9354 74.358 83.3134 73.62 84.0694 73.104C84.8254 72.576 85.9894 72.288 87.5614 72.24L89.1994 72.186V71.61C89.1994 70.806 89.0254 70.248 88.6774 69.936C88.3294 69.624 87.8374 69.468 87.2014 69.468C86.6974 69.468 86.2174 69.546 85.7614 69.702C85.3054 69.846 84.8794 70.014 84.4834 70.206L83.9974 69.018C84.4174 68.79 84.9154 68.598 85.4914 68.442C86.0674 68.274 86.6674 68.19 87.2914 68.19ZM87.7594 73.338C86.5594 73.386 85.7254 73.578 85.2574 73.914C84.8014 74.25 84.5734 74.724 84.5734 75.336C84.5734 75.876 84.7354 76.272 85.0594 76.524C85.3954 76.776 85.8214 76.902 86.3374 76.902C87.1534 76.902 87.8314 76.68 88.3714 76.236C88.9114 75.78 89.1814 75.084 89.1814 74.148V73.284L87.7594 73.338ZM101.485 70.782C101.485 71.382 101.305 71.85 100.945 72.186C100.585 72.522 100.123 72.75 99.5593 72.87V72.942C100.159 73.026 100.681 73.242 101.125 73.59C101.569 73.926 101.791 74.454 101.791 75.174C101.791 75.99 101.485 76.668 100.873 77.208C100.273 77.736 99.2773 78 97.8853 78H93.7273V68.352H97.8673C98.5513 68.352 99.1633 68.43 99.7033 68.586C100.255 68.73 100.687 68.982 100.999 69.342C101.323 69.69 101.485 70.17 101.485 70.782ZM99.8833 70.98C99.8833 70.524 99.7153 70.194 99.3793 69.99C99.0553 69.774 98.5213 69.666 97.7773 69.666H95.3113V72.312H97.4893C99.0853 72.312 99.8833 71.868 99.8833 70.98ZM100.153 75.174C100.153 74.622 99.9433 74.226 99.5233 73.986C99.1033 73.746 98.4853 73.626 97.6693 73.626H95.3113V76.722H97.7053C98.4973 76.722 99.1033 76.608 99.5233 76.38C99.9433 76.14 100.153 75.738 100.153 75.174ZM105.592 74.238C105.592 74.382 105.586 74.598 105.574 74.886C105.562 75.174 105.544 75.462 105.52 75.75C105.508 76.038 105.496 76.266 105.484 76.434L110.65 68.352H112.594V78H111.118V72.312C111.118 72.12 111.118 71.868 111.118 71.556C111.13 71.244 111.142 70.938 111.154 70.638C111.166 70.326 111.178 70.092 111.19 69.936L106.06 78H104.098V68.352H105.592V74.238ZM122.325 69.684H119.175V78H117.609V69.684H114.495V68.352H122.325V69.684ZM128.671 72.312C131.179 72.312 132.433 73.224 132.433 75.048C132.433 75.948 132.127 76.668 131.515 77.208C130.903 77.736 129.931 78 128.599 78H124.225V68.352H125.809V72.312H128.671ZM130.849 75.138C130.849 74.55 130.639 74.154 130.219 73.95C129.811 73.734 129.235 73.626 128.491 73.626H125.809V76.722H128.527C129.199 76.722 129.751 76.602 130.183 76.362C130.627 76.122 130.849 75.714 130.849 75.138ZM142.127 68.172C143.231 68.172 144.107 68.394 144.755 68.838C145.415 69.27 145.745 69.894 145.745 70.71C145.745 71.298 145.583 71.766 145.259 72.114C144.935 72.45 144.491 72.696 143.927 72.852V72.924C144.311 73.032 144.665 73.182 144.989 73.374C145.313 73.566 145.571 73.818 145.763 74.13C145.967 74.442 146.069 74.844 146.069 75.336C146.069 76.14 145.733 76.818 145.061 77.37C144.401 77.91 143.363 78.18 141.947 78.18C141.251 78.18 140.621 78.12 140.057 78C139.493 77.892 139.025 77.742 138.653 77.55V76.128C139.061 76.32 139.541 76.494 140.093 76.65C140.657 76.806 141.269 76.884 141.929 76.884C142.649 76.884 143.255 76.764 143.747 76.524C144.251 76.272 144.503 75.846 144.503 75.246C144.503 74.166 143.585 73.626 141.749 73.626H140.453V72.33H141.497C142.325 72.33 142.985 72.222 143.477 72.006C143.981 71.778 144.233 71.394 144.233 70.854C144.233 70.398 144.041 70.056 143.657 69.828C143.285 69.6 142.745 69.486 142.037 69.486C141.509 69.486 141.041 69.54 140.633 69.648C140.237 69.744 139.799 69.894 139.319 70.098L138.761 68.838C139.769 68.394 140.891 68.172 142.127 68.172ZM152.067 68.19C153.243 68.19 154.113 68.448 154.677 68.964C155.241 69.48 155.523 70.302 155.523 71.43V78H154.371L154.065 76.632H153.993C153.573 77.16 153.129 77.55 152.661 77.802C152.205 78.054 151.569 78.18 150.753 78.18C149.877 78.18 149.151 77.952 148.575 77.496C147.999 77.028 147.711 76.302 147.711 75.318C147.711 74.358 148.089 73.62 148.845 73.104C149.601 72.576 150.765 72.288 152.337 72.24L153.975 72.186V71.61C153.975 70.806 153.801 70.248 153.453 69.936C153.105 69.624 152.613 69.468 151.977 69.468C151.473 69.468 150.993 69.546 150.537 69.702C150.081 69.846 149.655 70.014 149.259 70.206L148.773 69.018C149.193 68.79 149.691 68.598 150.267 68.442C150.843 68.274 151.443 68.19 152.067 68.19ZM152.535 73.338C151.335 73.386 150.501 73.578 150.033 73.914C149.577 74.25 149.349 74.724 149.349 75.336C149.349 75.876 149.511 76.272 149.835 76.524C150.171 76.776 150.597 76.902 151.113 76.902C151.929 76.902 152.607 76.68 153.147 76.236C153.687 75.78 153.957 75.084 153.957 74.148V73.284L152.535 73.338ZM159.097 78H157.261L160.015 73.95C159.643 73.854 159.283 73.704 158.935 73.5C158.587 73.284 158.305 72.99 158.089 72.618C157.873 72.234 157.765 71.76 157.765 71.196C157.765 70.272 158.077 69.57 158.701 69.09C159.325 68.598 160.153 68.352 161.185 68.352H165.505V78H163.921V74.166H161.581L159.097 78ZM159.295 71.214C159.295 71.766 159.499 72.18 159.907 72.456C160.327 72.72 160.909 72.852 161.653 72.852H163.921V69.666H161.347C160.615 69.666 160.087 69.81 159.763 70.098C159.451 70.386 159.295 70.758 159.295 71.214ZM176.315 70.782C176.315 71.382 176.135 71.85 175.775 72.186C175.415 72.522 174.953 72.75 174.389 72.87V72.942C174.989 73.026 175.511 73.242 175.955 73.59C176.399 73.926 176.621 74.454 176.621 75.174C176.621 75.99 176.315 76.668 175.703 77.208C175.103 77.736 174.107 78 172.715 78H168.557V68.352H172.697C173.381 68.352 173.993 68.43 174.533 68.586C175.085 68.73 175.517 68.982 175.829 69.342C176.153 69.69 176.315 70.17 176.315 70.782ZM174.713 70.98C174.713 70.524 174.545 70.194 174.209 69.99C173.885 69.774 173.351 69.666 172.607 69.666H170.141V72.312H172.319C173.915 72.312 174.713 71.868 174.713 70.98ZM174.983 75.174C174.983 74.622 174.773 74.226 174.353 73.986C173.933 73.746 173.315 73.626 172.499 73.626H170.141V76.722H172.535C173.327 76.722 173.933 76.608 174.353 76.38C174.773 76.14 174.983 75.738 174.983 75.174ZM184.634 68.352H186.362L182.24 72.996L186.704 78H184.868L180.512 73.104V78H178.928V68.352H180.512V73.032L184.634 68.352ZM186.944 68.352H188.636L190.724 73.842C190.904 74.322 191.066 74.784 191.21 75.228C191.354 75.66 191.462 76.074 191.534 76.47H191.606C191.678 76.17 191.792 75.78 191.948 75.3C192.104 74.808 192.266 74.316 192.434 73.824L194.396 68.352H196.106L191.948 79.332C191.612 80.244 191.174 80.97 190.634 81.51C190.106 82.05 189.374 82.32 188.438 82.32C188.15 82.32 187.898 82.302 187.682 82.266C187.466 82.242 187.28 82.212 187.124 82.176V80.916C187.256 80.94 187.412 80.964 187.592 80.988C187.784 81.012 187.982 81.024 188.186 81.024C188.738 81.024 189.182 80.868 189.518 80.556C189.866 80.244 190.136 79.83 190.328 79.314L190.832 78.036L186.944 68.352Z" fill="white"/>
</g>
<g filter="url(#filter1_d_5_41)">
<path d="M74.7071 50.7071C75.0976 50.3166 75.0976 49.6834 74.7071 49.2929L68.3431 42.9289C67.9526 42.5384 67.3195 42.5384 66.9289 42.9289C66.5384 43.3195 66.5384 43.9526 66.9289 44.3431L72.5858 50L66.9289 55.6569C66.5384 56.0474 66.5384 56.6805 66.9289 57.0711C67.3195 57.4616 67.9526 57.4616 68.3431 57.0711L74.7071 50.7071ZM34 51H74V49H34V51Z" fill="white"/>
</g>
<g filter="url(#filter2_d_5_41)">
<circle cx="54" cy="50" r="49" stroke="white" stroke-width="2" shape-rendering="crispEdges"/>
</g>
<defs>
<filter id="filter0_d_5_41" x="50.99" y="68.1719" width="149.116" height="22.1479" filterUnits="userSpaceOnUse" color-interpolation-filters="sRGB">
<feFlood flood-opacity="0" result="BackgroundImageFix"/>
<feColorMatrix in="SourceAlpha" type="matrix" values="0 0 0 0 0 0 0 0 0 0 0 0 0 0 0 0 0 0 127 0" result="hardAlpha"/>
<feOffset dy="4"/>
<feGaussianBlur stdDeviation="2"/>
<feComposite in2="hardAlpha" operator="out"/>
<feColorMatrix type="matrix" values="0 0 0 0 0 0 0 0 0 0 0 0 0 0 0 0 0 0 0.25 0"/>
<feBlend mode="normal" in2="BackgroundImageFix" result="effect1_dropShadow_5_41"/>
<feBlend mode="normal" in="SourceGraphic" in2="effect1_dropShadow_5_41" result="shape"/>
</filter>
<filter id="filter1_d_5_41" x="30" y="42.6362" width="49" height="22.7275" filterUnits="userSpaceOnUse" color-interpolation-filters="sRGB">
<feFlood flood-opacity="0" result="BackgroundImageFix"/>
<feColorMatrix in="SourceAlpha" type="matrix" values="0 0 0 0 0 0 0 0 0 0 0 0 0 0 0 0 0 0 127 0" result="hardAlpha"/>
<feOffset dy="4"/>
<feGaussianBlur stdDeviation="2"/>
<feComposite in2="hardAlpha" operator="out"/>
<feColorMatrix type="matrix" values="0 0 0 0 0 0 0 0 0 0 0 0 0 0 0 0 0 0 0.25 0"/>
<feBlend mode="normal" in2="BackgroundImageFix" result="effect1_dropShadow_5_41"/>
<feBlend mode="normal" in="SourceGraphic" in2="effect1_dropShadow_5_41" result="shape"/>
</filter>
<filter id="filter2_d_5_41" x="0" y="0" width="108" height="108" filterUnits="userSpaceOnUse" color-interpolation-filters="sRGB">
<feFlood flood-opacity="0" result="BackgroundImageFix"/>
<feColorMatrix in="SourceAlpha" type="matrix" values="0 0 0 0 0 0 0 0 0 0 0 0 0 0 0 0 0 0 127 0" result="hardAlpha"/>
<feOffset dy="4"/>
<feGaussianBlur stdDeviation="2"/>
<feComposite in2="hardAlpha" operator="out"/>
<feColorMatrix type="matrix" values="0 0 0 0 0 0 0 0 0 0 0 0 0 0 0 0 0 0 0.25 0"/>
<feBlend mode="normal" in2="BackgroundImageFix" result="effect1_dropShadow_5_41"/>
<feBlend mode="normal" in="SourceGraphic" in2="effect1_dropShadow_5_41" result="shape"/>
</filter>
</defs>
</svg>
