<svg width="308" height="98" viewBox="0 0 308 98" fill="none" xmlns="http://www.w3.org/2000/svg">
<path d="M53.6434 66.992C54.3754 66.992 55.0114 67.094 55.5514 67.298C56.0914 67.49 56.5114 67.778 56.8114 68.162C57.1114 68.534 57.2614 68.99 57.2614 69.53C57.2614 70.118 57.0994 70.586 56.7754 70.934C56.4514 71.27 56.0074 71.516 55.4434 71.672V71.744C55.8274 71.852 56.1814 72.002 56.5054 72.194C56.8294 72.386 57.0874 72.638 57.2794 72.95C57.4834 73.262 57.5854 73.664 57.5854 74.156C57.5854 74.684 57.4354 75.164 57.1354 75.596C56.8474 76.028 56.3974 76.37 55.7854 76.622C55.1854 76.874 54.4114 77 53.4634 77C53.0074 77 52.5694 76.976 52.1494 76.928C51.7414 76.88 51.3694 76.808 51.0334 76.712C50.7094 76.616 50.4214 76.502 50.1694 76.37V74.948C50.5774 75.14 51.0574 75.314 51.6094 75.47C52.1734 75.626 52.7854 75.704 53.4454 75.704C53.9254 75.704 54.3574 75.65 54.7414 75.542C55.1374 75.434 55.4494 75.266 55.6774 75.038C55.9054 74.798 56.0194 74.474 56.0194 74.066C56.0194 73.694 55.9174 73.394 55.7134 73.166C55.5094 72.926 55.2034 72.746 54.7954 72.626C54.3994 72.506 53.8894 72.446 53.2654 72.446H51.9694V71.15H53.0134C53.8414 71.15 54.5014 71.042 54.9934 70.826C55.4974 70.598 55.7494 70.214 55.7494 69.674C55.7494 69.218 55.5574 68.876 55.1734 68.648C54.8014 68.42 54.2614 68.306 53.5534 68.306C53.0254 68.306 52.5574 68.36 52.1494 68.468C51.7534 68.564 51.3154 68.714 50.8354 68.918L50.2774 67.658C50.7934 67.43 51.3334 67.262 51.8974 67.154C52.4614 67.046 53.0434 66.992 53.6434 66.992ZM63.5837 67.01C64.7597 67.01 65.6297 67.268 66.1937 67.784C66.7577 68.3 67.0397 69.122 67.0397 70.25V76.82H65.8877L65.5817 75.452H65.5097C65.2337 75.8 64.9457 76.094 64.6457 76.334C64.3577 76.562 64.0217 76.73 63.6377 76.838C63.2657 76.946 62.8097 77 62.2697 77C61.6937 77 61.1717 76.898 60.7037 76.694C60.2477 76.49 59.8877 76.178 59.6237 75.758C59.3597 75.326 59.2277 74.786 59.2277 74.138C59.2277 73.178 59.6057 72.44 60.3617 71.924C61.1177 71.396 62.2817 71.108 63.8537 71.06L65.4917 71.006V70.43C65.4917 69.626 65.3177 69.068 64.9697 68.756C64.6217 68.444 64.1297 68.288 63.4937 68.288C62.9897 68.288 62.5097 68.366 62.0537 68.522C61.5977 68.666 61.1717 68.834 60.7757 69.026L60.2897 67.838C60.7097 67.61 61.2077 67.418 61.7837 67.262C62.3597 67.094 62.9597 67.01 63.5837 67.01ZM64.0517 72.158C62.8517 72.206 62.0177 72.398 61.5497 72.734C61.0937 73.07 60.8657 73.544 60.8657 74.156C60.8657 74.696 61.0277 75.092 61.3517 75.344C61.6877 75.596 62.1137 75.722 62.6297 75.722C63.4457 75.722 64.1237 75.5 64.6637 75.056C65.2037 74.6 65.4737 73.904 65.4737 72.968V72.104L64.0517 72.158ZM78.1735 67.172V76.82H76.5895V68.522H71.6035V76.82H70.0195V67.172H78.1735ZM82.7459 73.058C82.7459 73.166 82.7399 73.322 82.7279 73.526C82.7279 73.718 82.7219 73.928 82.7099 74.156C82.6979 74.372 82.6859 74.582 82.6739 74.786C82.6619 74.978 82.6499 75.134 82.6379 75.254L87.8039 67.172H89.7479V76.82H88.2719V71.132C88.2719 70.94 88.2719 70.688 88.2719 70.376C88.2839 70.064 88.2959 69.758 88.3079 69.458C88.3199 69.146 88.3319 68.912 88.3439 68.756L83.2139 76.82H81.2519V67.172H82.7459V73.058ZM96.6883 77C95.8363 77 95.0743 76.826 94.4023 76.478C93.7423 76.13 93.2203 75.59 92.8363 74.858C92.4643 74.126 92.2783 73.19 92.2783 72.05C92.2783 70.862 92.4763 69.896 92.8723 69.152C93.2683 68.408 93.8023 67.862 94.4743 67.514C95.1583 67.166 95.9323 66.992 96.7963 66.992C97.2883 66.992 97.7623 67.046 98.2183 67.154C98.6743 67.25 99.0463 67.37 99.3343 67.514L98.8483 68.828C98.5603 68.72 98.2243 68.618 97.8403 68.522C97.4563 68.426 97.0963 68.378 96.7603 68.378C96.1123 68.378 95.5783 68.516 95.1583 68.792C94.7383 69.068 94.4263 69.476 94.2223 70.016C94.0183 70.556 93.9163 71.228 93.9163 72.032C93.9163 72.8 94.0183 73.454 94.2223 73.994C94.4263 74.534 94.7323 74.942 95.1403 75.218C95.5483 75.494 96.0583 75.632 96.6703 75.632C97.1983 75.632 97.6603 75.578 98.0563 75.47C98.4643 75.362 98.8363 75.23 99.1723 75.074V76.478C98.8483 76.646 98.4883 76.772 98.0923 76.856C97.7083 76.952 97.2403 77 96.6883 77ZM105.121 67.01C106.297 67.01 107.167 67.268 107.731 67.784C108.295 68.3 108.577 69.122 108.577 70.25V76.82H107.425L107.119 75.452H107.047C106.771 75.8 106.483 76.094 106.183 76.334C105.895 76.562 105.559 76.73 105.175 76.838C104.803 76.946 104.347 77 103.807 77C103.231 77 102.709 76.898 102.241 76.694C101.785 76.49 101.425 76.178 101.161 75.758C100.897 75.326 100.765 74.786 100.765 74.138C100.765 73.178 101.143 72.44 101.899 71.924C102.655 71.396 103.819 71.108 105.391 71.06L107.029 71.006V70.43C107.029 69.626 106.855 69.068 106.507 68.756C106.159 68.444 105.667 68.288 105.031 68.288C104.527 68.288 104.047 68.366 103.591 68.522C103.135 68.666 102.709 68.834 102.313 69.026L101.827 67.838C102.247 67.61 102.745 67.418 103.321 67.262C103.897 67.094 104.497 67.01 105.121 67.01ZM105.589 72.158C104.389 72.206 103.555 72.398 103.087 72.734C102.631 73.07 102.403 73.544 102.403 74.156C102.403 74.696 102.565 75.092 102.889 75.344C103.225 75.596 103.651 75.722 104.167 75.722C104.983 75.722 105.661 75.5 106.201 75.056C106.741 74.6 107.011 73.904 107.011 72.968V72.104L105.589 72.158ZM118.217 68.504H115.067V76.82H113.501V68.504H110.387V67.172H118.217V68.504ZM124.563 71.132C125.403 71.132 126.099 71.234 126.651 71.438C127.203 71.642 127.617 71.948 127.893 72.356C128.181 72.752 128.325 73.256 128.325 73.868C128.325 74.468 128.187 74.99 127.911 75.434C127.647 75.878 127.233 76.22 126.669 76.46C126.105 76.7 125.379 76.82 124.491 76.82H120.117V67.172H121.701V71.132H124.563ZM126.741 73.958C126.741 73.37 126.531 72.974 126.111 72.77C125.703 72.554 125.127 72.446 124.383 72.446H121.701V75.542H124.419C125.091 75.542 125.643 75.422 126.075 75.182C126.519 74.942 126.741 74.534 126.741 73.958ZM134.675 77C133.823 77 133.061 76.826 132.389 76.478C131.729 76.13 131.207 75.59 130.823 74.858C130.451 74.126 130.265 73.19 130.265 72.05C130.265 70.862 130.463 69.896 130.859 69.152C131.255 68.408 131.789 67.862 132.461 67.514C133.145 67.166 133.919 66.992 134.783 66.992C135.275 66.992 135.749 67.046 136.205 67.154C136.661 67.25 137.033 67.37 137.321 67.514L136.835 68.828C136.547 68.72 136.211 68.618 135.827 68.522C135.443 68.426 135.083 68.378 134.747 68.378C134.099 68.378 133.565 68.516 133.145 68.792C132.725 69.068 132.413 69.476 132.209 70.016C132.005 70.556 131.903 71.228 131.903 72.032C131.903 72.8 132.005 73.454 132.209 73.994C132.413 74.534 132.719 74.942 133.127 75.218C133.535 75.494 134.045 75.632 134.657 75.632C135.185 75.632 135.647 75.578 136.043 75.47C136.451 75.362 136.823 75.23 137.159 75.074V76.478C136.835 76.646 136.475 76.772 136.079 76.856C135.695 76.952 135.227 77 134.675 77ZM140.047 76.82H138.211L140.965 72.77C140.593 72.674 140.233 72.524 139.885 72.32C139.537 72.104 139.255 71.81 139.039 71.438C138.823 71.054 138.715 70.58 138.715 70.016C138.715 69.092 139.027 68.39 139.651 67.91C140.275 67.418 141.103 67.172 142.135 67.172H146.455V76.82H144.871V72.986H142.531L140.047 76.82ZM140.245 70.034C140.245 70.586 140.449 71 140.857 71.276C141.277 71.54 141.859 71.672 142.603 71.672H144.871V68.486H142.297C141.565 68.486 141.037 68.63 140.713 68.918C140.401 69.206 140.245 69.578 140.245 70.034ZM155.768 67.172V71.186H161.006V67.172H162.59V76.82H161.006V72.518H155.768V76.82H154.184V67.172H155.768ZM169.299 67.01C170.475 67.01 171.345 67.268 171.909 67.784C172.473 68.3 172.755 69.122 172.755 70.25V76.82H171.603L171.297 75.452H171.225C170.949 75.8 170.661 76.094 170.361 76.334C170.073 76.562 169.737 76.73 169.353 76.838C168.981 76.946 168.525 77 167.985 77C167.409 77 166.887 76.898 166.419 76.694C165.963 76.49 165.603 76.178 165.339 75.758C165.075 75.326 164.943 74.786 164.943 74.138C164.943 73.178 165.321 72.44 166.077 71.924C166.833 71.396 167.997 71.108 169.569 71.06L171.207 71.006V70.43C171.207 69.626 171.033 69.068 170.685 68.756C170.337 68.444 169.845 68.288 169.209 68.288C168.705 68.288 168.225 68.366 167.769 68.522C167.313 68.666 166.887 68.834 166.491 69.026L166.005 67.838C166.425 67.61 166.923 67.418 167.499 67.262C168.075 67.094 168.675 67.01 169.299 67.01ZM169.767 72.158C168.567 72.206 167.733 72.398 167.265 72.734C166.809 73.07 166.581 73.544 166.581 74.156C166.581 74.696 166.743 75.092 167.067 75.344C167.403 75.596 167.829 75.722 168.345 75.722C169.161 75.722 169.839 75.5 170.379 75.056C170.919 74.6 171.189 73.904 171.189 72.968V72.104L169.767 72.158ZM186.116 67.172H187.844L183.722 71.816L188.186 76.82H186.35L181.994 71.924V76.82H180.41V67.172H181.994V71.852L186.116 67.172ZM197.974 71.978C197.974 72.782 197.866 73.496 197.65 74.12C197.446 74.732 197.146 75.254 196.75 75.686C196.366 76.118 195.892 76.448 195.328 76.676C194.776 76.892 194.158 77 193.474 77C192.838 77 192.25 76.892 191.71 76.676C191.17 76.448 190.702 76.118 190.306 75.686C189.91 75.254 189.598 74.732 189.37 74.12C189.154 73.496 189.046 72.782 189.046 71.978C189.046 70.91 189.226 70.01 189.586 69.278C189.946 68.534 190.462 67.97 191.134 67.586C191.806 67.19 192.604 66.992 193.528 66.992C194.404 66.992 195.172 67.19 195.832 67.586C196.504 67.97 197.026 68.534 197.398 69.278C197.782 70.01 197.974 70.91 197.974 71.978ZM190.684 71.978C190.684 72.734 190.78 73.394 190.972 73.958C191.176 74.51 191.488 74.936 191.908 75.236C192.328 75.536 192.862 75.686 193.51 75.686C194.158 75.686 194.692 75.536 195.112 75.236C195.532 74.936 195.838 74.51 196.03 73.958C196.234 73.394 196.336 72.734 196.336 71.978C196.336 71.21 196.234 70.556 196.03 70.016C195.826 69.476 195.514 69.062 195.094 68.774C194.686 68.474 194.152 68.324 193.492 68.324C192.508 68.324 191.794 68.648 191.35 69.296C190.906 69.944 190.684 70.838 190.684 71.978ZM202.068 67.172V71.186H207.306V67.172H208.89V76.82H207.306V72.518H202.068V76.82H200.484V67.172H202.068ZM215.815 77C214.963 77 214.201 76.826 213.529 76.478C212.869 76.13 212.347 75.59 211.963 74.858C211.591 74.126 211.405 73.19 211.405 72.05C211.405 70.862 211.603 69.896 211.999 69.152C212.395 68.408 212.929 67.862 213.601 67.514C214.285 67.166 215.059 66.992 215.923 66.992C216.415 66.992 216.889 67.046 217.345 67.154C217.801 67.25 218.173 67.37 218.461 67.514L217.975 68.828C217.687 68.72 217.351 68.618 216.967 68.522C216.583 68.426 216.223 68.378 215.887 68.378C215.239 68.378 214.705 68.516 214.285 68.792C213.865 69.068 213.553 69.476 213.349 70.016C213.145 70.556 213.043 71.228 213.043 72.032C213.043 72.8 213.145 73.454 213.349 73.994C213.553 74.534 213.859 74.942 214.267 75.218C214.675 75.494 215.185 75.632 215.797 75.632C216.325 75.632 216.787 75.578 217.183 75.47C217.591 75.362 217.963 75.23 218.299 75.074V76.478C217.975 76.646 217.615 76.772 217.219 76.856C216.835 76.952 216.367 77 215.815 77ZM219.082 67.172H220.774L222.862 72.662C222.982 72.986 223.09 73.298 223.186 73.598C223.294 73.898 223.39 74.192 223.474 74.48C223.558 74.756 223.624 75.026 223.672 75.29H223.744C223.816 74.99 223.93 74.6 224.086 74.12C224.242 73.628 224.404 73.136 224.572 72.644L226.534 67.172H228.244L224.086 78.152C223.858 78.752 223.588 79.274 223.276 79.718C222.976 80.174 222.604 80.522 222.16 80.762C221.728 81.014 221.2 81.14 220.576 81.14C220.288 81.14 220.036 81.122 219.82 81.086C219.604 81.062 219.418 81.032 219.262 80.996V79.736C219.394 79.76 219.55 79.784 219.73 79.808C219.922 79.832 220.12 79.844 220.324 79.844C220.696 79.844 221.014 79.772 221.278 79.628C221.554 79.496 221.788 79.298 221.98 79.034C222.172 78.782 222.334 78.482 222.466 78.134L222.97 76.856L219.082 67.172ZM236.762 76.82H235.16V68.486H232.316C232.196 70.01 232.046 71.312 231.866 72.392C231.686 73.46 231.458 74.33 231.182 75.002C230.906 75.674 230.576 76.166 230.192 76.478C229.808 76.79 229.358 76.946 228.842 76.946C228.686 76.946 228.53 76.934 228.374 76.91C228.23 76.898 228.11 76.868 228.014 76.82V75.632C228.086 75.656 228.164 75.674 228.248 75.686C228.332 75.698 228.416 75.704 228.5 75.704C228.764 75.704 229.004 75.596 229.22 75.38C229.436 75.164 229.628 74.834 229.796 74.39C229.976 73.946 230.138 73.388 230.282 72.716C230.426 72.032 230.552 71.228 230.66 70.304C230.768 69.38 230.864 68.336 230.948 67.172H236.762V76.82ZM244.27 71.132C245.11 71.132 245.806 71.234 246.358 71.438C246.91 71.642 247.324 71.948 247.6 72.356C247.888 72.752 248.032 73.256 248.032 73.868C248.032 74.468 247.894 74.99 247.618 75.434C247.354 75.878 246.94 76.22 246.376 76.46C245.812 76.7 245.086 76.82 244.198 76.82H239.824V67.172H241.408V71.132H244.27ZM246.448 73.958C246.448 73.37 246.238 72.974 245.818 72.77C245.41 72.554 244.834 72.446 244.09 72.446H241.408V75.542H244.126C244.798 75.542 245.35 75.422 245.782 75.182C246.226 74.942 246.448 74.534 246.448 73.958ZM256.275 68.504H253.125V76.82H251.559V68.504H248.445V67.172H256.275V68.504ZM261.83 67.01C263.006 67.01 263.876 67.268 264.44 67.784C265.004 68.3 265.286 69.122 265.286 70.25V76.82H264.134L263.828 75.452H263.756C263.48 75.8 263.192 76.094 262.892 76.334C262.604 76.562 262.268 76.73 261.884 76.838C261.512 76.946 261.056 77 260.516 77C259.94 77 259.418 76.898 258.95 76.694C258.494 76.49 258.134 76.178 257.87 75.758C257.606 75.326 257.474 74.786 257.474 74.138C257.474 73.178 257.852 72.44 258.608 71.924C259.364 71.396 260.528 71.108 262.1 71.06L263.738 71.006V70.43C263.738 69.626 263.564 69.068 263.216 68.756C262.868 68.444 262.376 68.288 261.74 68.288C261.236 68.288 260.756 68.366 260.3 68.522C259.844 68.666 259.418 68.834 259.022 69.026L258.536 67.838C258.956 67.61 259.454 67.418 260.03 67.262C260.606 67.094 261.206 67.01 261.83 67.01ZM262.298 72.158C261.098 72.206 260.264 72.398 259.796 72.734C259.34 73.07 259.112 73.544 259.112 74.156C259.112 74.696 259.274 75.092 259.598 75.344C259.934 75.596 260.36 75.722 260.876 75.722C261.692 75.722 262.37 75.5 262.91 75.056C263.45 74.6 263.72 73.904 263.72 72.968V72.104L262.298 72.158ZM277.788 80.168H276.24V76.82H268.266V67.172H269.85V75.488H274.836V67.172H276.42V75.506H277.788V80.168ZM281.133 73.058C281.133 73.166 281.127 73.322 281.115 73.526C281.115 73.718 281.109 73.928 281.097 74.156C281.085 74.372 281.073 74.582 281.061 74.786C281.049 74.978 281.037 75.134 281.025 75.254L286.191 67.172H288.135V76.82H286.659V71.132C286.659 70.94 286.659 70.688 286.659 70.376C286.671 70.064 286.683 69.758 286.695 69.458C286.707 69.146 286.719 68.912 286.731 68.756L281.601 76.82H279.639V67.172H281.133V73.058ZM303.733 71.978C303.733 73.046 303.559 73.958 303.211 74.714C302.863 75.458 302.371 76.028 301.735 76.424C301.099 76.808 300.343 77 299.467 77C298.651 77 297.937 76.832 297.325 76.496C296.713 76.148 296.227 75.644 295.867 74.984C295.507 74.312 295.297 73.49 295.237 72.518H292.789V76.82H291.205V67.172H292.789V71.186H295.255C295.339 70.274 295.561 69.512 295.921 68.9C296.293 68.276 296.779 67.802 297.379 67.478C297.991 67.154 298.699 66.992 299.503 66.992C300.331 66.992 301.063 67.19 301.699 67.586C302.335 67.97 302.833 68.534 303.193 69.278C303.553 70.01 303.733 70.91 303.733 71.978ZM296.857 71.978C296.857 72.782 296.947 73.46 297.127 74.012C297.319 74.564 297.607 74.984 297.991 75.272C298.375 75.548 298.873 75.686 299.485 75.686C300.097 75.686 300.595 75.548 300.979 75.272C301.363 74.984 301.645 74.564 301.825 74.012C302.005 73.46 302.095 72.782 302.095 71.978C302.095 71.174 302.005 70.502 301.825 69.962C301.645 69.422 301.363 69.014 300.979 68.738C300.595 68.462 300.097 68.324 299.485 68.324C298.873 68.324 298.375 68.462 297.991 68.738C297.607 69.014 297.319 69.422 297.127 69.962C296.947 70.502 296.857 71.174 296.857 71.978Z" fill="white"/>
<path d="M70.7434 49.7071C71.134 49.3166 71.134 48.6834 70.7434 48.2929L64.3795 41.9289C63.989 41.5384 63.3558 41.5384 62.9653 41.9289C62.5747 42.3195 62.5747 42.9526 62.9653 43.3431L68.6221 49L62.9653 54.6569C62.5747 55.0474 62.5747 55.6805 62.9653 56.0711C63.3558 56.4616 63.989 56.4616 64.3795 56.0711L70.7434 49.7071ZM30.0155 50H70.0363V48H30.0155V50Z" fill="white"/>
<path d="M99.0521 49C99.0521 75.4902 77.122 97 50.026 97C22.9301 97 1 75.4902 1 49C1 22.5098 22.9301 1 50.026 1C77.122 1 99.0521 22.5098 99.0521 49Z" stroke="white" stroke-width="2"/>
</svg>
